{"title":"Gravytrain (2010) DvdRip [Xvid] {1337x}-X","uid":6447009,"size":733689856,"categoryP":"video","categoryS":"movies","magnet":"?xt=urn:btih:d2c2858555eae49bf9f43c57bcf8b8b14cd2e40c&amp;dn=Gravytrain+%282010%29+DvdRip+%5BXvid%5D+%7B1337x%7D-X&amp;tr=udp%3A%2F%2Ftracker.openbittorrent.com%3A80&amp;tr=udp%3A%2F%2Fopen.demonii.com%3A1337&amp;tr=udp%3A%2F%2Ftracker.coppersurfer.tk%3A6969&amp;tr=udp%3A%2F%2Fexodus.desync.com%3A6969","seeders":0,"leechers":2,"uploader":"qwersd","files":1,"time":1307300923,"description":"Gypsy Creek's # 1 cop, Charles Gravytrain believes in three things: Truth, Justice, and slapping the no good crook Jimmy Fish Eye's in the slammer for life! And with the help of his foxy new partner, big city cop Miss Uma Booma, he may do just that. But in a town that has more stinky secrets and slippery surprises than a tin of rotten sardines the only question remains...Where's the Fish?!\n\nVideo\nID : 0\nFormat : MPEG-4 Visual\nFormat profile : Advanced Simple@L5\nFormat settings, BVOP : Yes\nFormat settings, QPel : No\nFormat settings, GMC : No warppoints\nFormat settings, Matrix : Default (H.263)\nMuxing mode : Packed bitstream\nCodec ID : XVID\nCodec ID/Hint : XviD\nDuration : 1h 23mn\nBit rate : 1 054 Kbps\nWidth : 720 pixels\nHeight : 384 pixels\nDisplay aspect ratio : 1.875\nFrame rate : 23.976 fps\nColor space : YUV\nChroma subsampling : 4:2:0\nBit depth : 8 bits\nScan type : Progressive\nBits/(Pixel*Frame) : 0.159\nStream size : 631 MiB (90%)\nWriting library : XviD 57\n\nAudio\nID : 1\nFormat : MPEG Audio\nFormat version : Version 1\nFormat profile : Layer 3\nMode : Joint stereo\nMode extension : MS Stereo\nCodec ID : 55\nCodec ID/Hint : MP3\nDuration : 1h 23mn\nBit rate mode : Variable\nBit rate : 102 Kbps\nNominal bit rate : 112 Kbps\nChannel(s) : 2 channels\nSampling rate : 48.0 KHz\nStream size : 60.9 MiB (9%)\nAlignment : Aligned on interleaves\nInterleave, duration : 24 ms (0.58 video frame)\nInterleave, preload duration : 181 ms\nWriting library : LAME3.97 \nEncoding settings : -m j -V 4 -q 2 -lowpass 16 --abr 112\n\nScreens:\n &lt;a href=&quot;\nhttp://leetleech.org/images/70378483343417082049.jpg&quot; rel=&quot;nofollow&quot; target=&quot;_NEW&quot;&gt;\nhttp://leetleech.org/images/70378483343417082049.jpg&lt;/a&gt;","torrent":{"xt":"urn:btih:d2c2858555eae49bf9f43c57bcf8b8b14cd2e40c","amp;dn":"Gravytrain+%282010%29+DvdRip+%5BXvid%5D+%7B1337x%7D-X","amp;tr":["udp%3A%2F%2Ftracker.openbittorrent.com%3A80","udp%3A%2F%2Fopen.demonii.com%3A1337","udp%3A%2F%2Ftracker.coppersurfer.tk%3A6969","udp%3A%2F%2Fexodus.desync.com%3A6969"],"infoHash":"d2c2858555eae49bf9f43c57bcf8b8b14cd2e40c","infoHashBuffer":{"type":"Buffer","data":[210,194,133,133,85,234,228,155,249,244,60,87,188,248,184,177,76,210,228,12]},"announce":[],"urlList":[]}}